<svg width="71" height="70" viewBox="0 0 71 70" fill="none" xmlns="http://www.w3.org/2000/svg">
<path d="M54.0453 25.1766C53.9507 25.6022 53.6266 25.9398 53.2052 26.0519C52.4212 26.2613 51.6591 26.5464 50.9301 26.9032C50.3485 27.1793 49.7904 27.5035 49.2617 27.872C49.0401 28.0231 48.8185 28.1748 48.6086 28.3382C48.2588 28.6068 47.9084 28.8984 47.5704 29.19L46.6486 30.1118C46.6486 30.1236 46.6368 30.1348 46.6251 30.1465C46.4269 30.3682 46.2171 30.5898 46.0184 30.8232C46.0184 30.8349 46.0066 30.8467 45.9837 30.8584C45.3941 31.5821 44.8557 32.3458 44.3735 33.1453C44.2688 33.2969 44.1871 33.4486 44.0936 33.6115C43.802 34.1253 43.5334 34.6502 43.2653 35.2099C43.2183 35.3269 43.1719 35.4316 43.1136 35.5485C42.845 36.1552 42.6004 36.7966 42.3788 37.4503C42.2736 37.7766 42.1684 38.0917 42.0754 38.4185C41.8885 39.0717 41.7133 39.7483 41.5734 40.4485C41.5152 40.7636 41.4453 41.0782 41.3988 41.405C41.3518 41.7318 41.2936 42.0352 41.2583 42.3503C41.2119 42.6184 41.1772 42.8865 41.1537 43.1551C41.1184 43.5049 41.0837 43.8665 41.0602 44.2286C41.0255 44.6483 41.002 45.0686 40.9902 45.5001H66.6218C66.4936 35.525 64.6501 28.6885 61.3138 25.4682L64.0786 17.1849C64.296 16.6199 64.8647 16.2712 65.4672 16.3331C67.8517 16.331 69.8512 14.5312 70.1033 12.1595C70.3549 9.78771 68.7783 7.60823 66.4472 7.10514C65.809 6.96522 65.1483 6.96522 64.5101 7.10514C64.0984 7.19486 63.6743 7.01756 63.4484 6.66188C62.3595 5.09121 60.423 4.34353 58.5613 4.77452C56.6995 5.20497 55.2886 6.72756 55.0002 8.61706C54.7123 10.506 55.6047 12.38 57.2534 13.3467C57.7399 13.6511 57.9492 14.253 57.7554 14.7934L54.8736 23.3918C54.3123 23.4462 53.7553 23.5354 53.2052 23.6599C53.3569 23.7886 53.5085 23.905 53.6602 24.0332C53.9887 24.3152 54.1366 24.7536 54.0453 25.1766ZM59.9605 15.5283C60.4978 13.9491 59.8676 12.2086 58.4438 11.3402C57.6187 10.858 57.1711 9.9223 57.3132 8.97755C57.4558 8.0328 58.1597 7.27017 59.09 7.05334C60.0203 6.83598 60.9891 7.20768 61.5354 7.99168C62.2933 9.12495 63.6695 9.67663 65.0004 9.38023C65.3203 9.32148 65.6482 9.32148 65.9686 9.38023C66.8856 9.58904 67.5911 10.3223 67.7652 11.2468C67.8913 11.9341 67.7022 12.6423 67.2504 13.1758C66.798 13.7088 66.131 14.0116 65.4319 13.9998C63.8383 13.9619 62.3995 14.9494 61.8617 16.4501L59.3303 24.0449L59.0852 23.9402C58.886 23.8452 58.6793 23.7672 58.4667 23.7069C58.385 23.6834 58.3033 23.6481 58.2104 23.6251C58.1169 23.6017 58.047 23.5782 57.9535 23.5552C57.9044 23.5381 57.8536 23.5263 57.8018 23.5199C57.6502 23.4852 57.4867 23.45 57.3233 23.4265L59.9605 15.5283Z" fill="#F3274C"/>
<path d="M12.3249 62.2065C14.4585 62.8553 16.4585 63.8829 18.2284 65.2399C21.1449 67.4098 26.4417 70 35.1334 70C43.8247 70 49.1215 67.4098 52.0385 65.2399C53.8084 63.8829 55.8079 62.8553 57.9414 62.2065C61.9084 61.0401 68.7801 57.8432 70.0864 49.56C70.2467 48.5458 69.9556 47.5129 69.2891 46.7321C68.6226 45.9513 67.6479 45.5011 66.6215 45.5001C66.6332 45.8851 66.6332 46.2702 66.6332 46.6664C66.6332 47.3111 66.1109 47.8334 65.4668 47.8334H21.1331C21.1331 48.8636 20.457 49.772 19.4701 50.0679C18.4826 50.3637 17.4188 49.9771 16.8516 49.1167C16.7987 49.0387 16.7357 48.9682 16.6647 48.9068C16.2283 48.4865 15.5378 48.4865 15.1015 48.9068C15.0304 48.9682 14.968 49.0387 14.9151 49.1167C14.4323 49.8521 13.5762 50.2521 12.7025 50.1512C11.8288 50.0497 11.0864 49.4644 10.7847 48.6382C10.6469 48.2558 10.3195 47.9733 9.92165 47.8916C9.52431 47.82 9.11736 47.9514 8.83644 48.2414C8.40172 48.7242 7.78275 48.9997 7.13333 48.9997C6.01075 48.9891 5.05532 48.181 4.85825 47.0761C4.66118 45.9716 5.27909 44.8827 6.32851 44.4848C6.71036 44.347 6.99341 44.0197 7.07512 43.6218C7.15203 43.2239 7.02011 42.8143 6.72478 42.5366C6.24199 42.1019 5.96642 41.4829 5.96642 40.8335C5.97069 39.5464 7.01264 38.5039 8.29972 38.5002C8.57155 38.5012 8.84018 38.553 9.09333 38.6518C9.46289 38.7886 9.87625 38.7271 10.1897 38.4884C10.5048 38.2433 10.6789 37.8598 10.6565 37.4614C10.6432 37.4203 10.6351 37.377 10.633 37.3333C10.6373 36.0462 11.6798 35.0037 12.9668 35C13.7775 35.0016 14.5274 35.432 14.9381 36.1316C14.8334 36.4932 14.7517 36.8547 14.67 37.2168C14.5882 37.5784 14.5183 37.9282 14.4601 38.2785C14.451 38.2876 14.4467 38.3004 14.4483 38.3132C14.3901 38.6631 14.3431 39.0134 14.2966 39.3632C14.2614 39.6201 14.2384 39.8764 14.2149 40.1333C14.1914 40.3667 14.1797 40.5883 14.1685 40.81C14.145 41.2068 14.1332 41.603 14.1332 41.9998C14.1332 42.6445 14.6555 43.1668 15.3001 43.1668C16.2914 43.1721 17.1709 43.8039 17.493 44.7417C17.6222 45.1412 17.9651 45.4344 18.3801 45.5001C18.4757 45.5198 18.5739 45.5278 18.6716 45.523C18.6914 45.523 18.7112 45.5193 18.7299 45.5118C18.7614 45.5139 18.7934 45.5102 18.8233 45.5001H38.6566C38.6684 45.185 38.6801 44.8699 38.7031 44.5665C38.7015 44.5078 38.7052 44.4496 38.7148 44.3914C38.7266 44.0805 38.7501 43.7654 38.7848 43.4466C38.8083 43.1086 38.843 42.7817 38.89 42.4549C38.9365 42.128 38.9717 41.8135 39.0182 41.4866C40.2898 33.2151 44.5601 27.6967 49.3549 25.0948C49.7282 24.8967 50.1015 24.7097 50.4748 24.5468C51.3517 24.157 52.2665 23.86 53.2049 23.6598C49.0606 20.3801 43.9182 18.6183 38.6331 18.6669C28.7167 18.6621 19.7456 24.5484 15.8016 33.6467C14.9947 33.0085 13.9954 32.6629 12.9668 32.6667C10.8397 32.6683 8.98331 34.1075 8.45139 36.1669C6.78139 36.1119 5.20912 36.9546 4.33007 38.3757C3.45047 39.7969 3.39867 41.5795 4.19335 43.0498C3.37731 43.7217 2.80747 44.645 2.57141 45.6747C1.94657 45.8776 1.38954 46.2493 0.961764 46.7482C0.305942 47.5279 0.0207549 48.5538 0.179904 49.56C1.48674 57.8432 8.35846 61.0401 12.3249 62.2065ZM35.3316 23.4616C35.6841 22.9254 36.4034 22.7743 36.9418 23.123C38.6977 24.3022 40.3245 25.663 41.7947 27.1835C42.0142 27.4014 42.1371 27.6989 42.1349 28.0081C42.1323 28.3178 42.0057 28.6132 41.783 28.8284C41.5662 29.0436 41.2724 29.1654 40.9664 29.1664C40.654 29.1686 40.3544 29.042 40.1381 28.8166C38.7752 27.4201 37.2745 26.1656 35.6584 25.0718C35.3994 24.9031 35.2194 24.6376 35.158 24.3348C35.0966 24.0325 35.1591 23.7175 35.3316 23.4616ZM28.2617 27.4751C28.4 27.1984 28.6425 26.9891 28.9362 26.8924C29.23 26.7963 29.5499 26.8209 29.8249 26.9619C32.7446 28.4497 35.2894 30.5796 37.2681 33.1916C37.44 33.448 37.5025 33.7625 37.4411 34.0648C37.3797 34.3671 37.1997 34.6325 36.9418 34.8018C36.7538 34.9332 36.5295 35.0026 36.2998 35C35.9094 34.9978 35.5463 34.8008 35.3316 34.475C33.566 32.209 31.3288 30.3537 28.775 29.0383C28.4983 28.9 28.289 28.657 28.1923 28.3638C28.0962 28.07 28.1207 27.7501 28.2617 27.4751ZM21.1801 33.5414C21.3355 32.9235 21.9614 32.5481 22.5799 32.7014C22.7898 32.7484 27.7485 34.0664 32.6015 41.3584C32.7734 41.6148 32.8359 41.9288 32.7745 42.2316C32.7131 42.5339 32.5331 42.7993 32.2752 42.9681C32.0872 43.1 31.8629 43.1694 31.6332 43.1668C31.2428 43.1646 30.8797 42.9676 30.665 42.6418C26.3482 36.1781 22.0549 34.9765 22.0084 34.9647C21.3873 34.7997 21.0167 34.1631 21.1801 33.5414Z" fill="#F3274C"/>
<path d="M33.9668 8.16681C33.9668 8.81088 34.4891 9.33319 35.1337 9.33319C35.7778 9.33319 36.3001 8.81088 36.3001 8.16681C36.3001 8.07816 36.3001 8.06641 36.5415 7.82501C37.1284 7.32941 37.4665 6.60042 37.4665 5.83298C37.4665 5.065 37.1284 4.33601 36.5415 3.84041C36.3001 3.59795 36.3001 3.5862 36.3001 3.50021C36.3001 3.4137 36.3001 3.40088 36.5415 3.16055C37.1247 2.66121 37.4622 1.93382 37.467 1.16692C37.467 0.522308 36.9447 0 36.3001 0C35.656 0 35.1337 0.522308 35.1337 1.16692C35.1337 1.25397 35.1337 1.26572 34.8918 1.50711C34.3091 2.00592 33.9716 2.73277 33.9668 3.50021C33.9721 4.26659 34.3097 4.99397 34.8918 5.49278C35.1337 5.73204 35.1337 5.74326 35.1337 5.83351C35.1337 5.92323 35.1337 5.93391 34.8918 6.17531C34.3102 6.67358 33.9727 7.40044 33.9668 8.16681Z" fill="#F3274C"/>
<path d="M26.9668 13.9998C26.9668 14.6444 27.4891 15.1667 28.1332 15.1667C28.7778 15.1667 29.3001 14.6444 29.3001 13.9998C29.3001 13.9111 29.3001 13.8999 29.5415 13.658C30.1284 13.1624 30.4665 12.4334 30.4665 11.6654C30.4665 10.8974 30.1284 10.1684 29.5415 9.67284C29.3001 9.43251 29.3001 9.42076 29.3001 9.33318C29.3001 9.24559 29.3001 9.23438 29.5415 8.99405C30.1241 8.49471 30.4617 7.76732 30.467 6.99988C30.467 6.3558 29.9442 5.8335 29.3001 5.8335C28.6555 5.8335 28.1332 6.3558 28.1332 6.99988C28.1332 7.08746 28.1332 7.09921 27.8918 7.33954C27.3054 7.83514 26.9668 8.5636 26.9668 9.33157C26.9668 10.0995 27.3054 10.828 27.8918 11.3236C28.1332 11.5661 28.1332 11.5778 28.1332 11.6665C28.1332 11.7551 28.1332 11.7669 27.8918 12.0083C27.3097 12.5071 26.9727 13.2334 26.9668 13.9998Z" fill="#F3274C"/>
<path d="M40.9663 13.9998C40.9663 14.6444 41.4886 15.1667 42.1332 15.1667C42.7773 15.1667 43.2996 14.6444 43.2996 13.9998C43.2996 13.9111 43.2996 13.8999 43.5415 13.658C44.1279 13.1624 44.4665 12.4334 44.4665 11.6654C44.4665 10.8974 44.1279 10.1684 43.5415 9.67284C43.2996 9.43251 43.2996 9.42076 43.2996 9.33318C43.2996 9.24559 43.2996 9.23438 43.5415 8.99405C44.1242 8.49471 44.4617 7.76732 44.4665 6.99988C44.4665 6.3558 43.9442 5.8335 43.2996 5.8335C42.6555 5.8335 42.1332 6.3558 42.1332 6.99988C42.1332 7.08746 42.1332 7.09921 41.8918 7.33954C41.3049 7.83514 40.9668 8.5636 40.9668 9.33157C40.9668 10.0995 41.3049 10.828 41.8918 11.3236C42.1332 11.5661 42.1332 11.5778 42.1332 11.6665C42.1332 11.7551 42.1332 11.7669 41.8918 12.0083C41.3097 12.5071 40.9722 13.2334 40.9663 13.9998Z" fill="#F3274C"/>
</svg>
